<?xml version="1.0" encoding="utf-8"?>
<!-- Generator: Adobe Illustrator 21.0.0, SVG Export Plug-In . SVG Version: 6.00 Build 0)  -->
<svg version="1.1" id="图层_1" xmlns="http://www.w3.org/2000/svg" xmlns:xlink="http://www.w3.org/1999/xlink" x="0px" y="0px"
	 viewBox="0 0 512 512" style="enable-background:new 0 0 512 512;" xml:space="preserve">
<g>
	<polygon style="fill:#199583;" points="349.7,24.8 256,194.1 162.3,24.8 129.8,24.8 256,252.7 382.2,24.8 	"/>
	<polygon style="fill:#50DEDE;" points="382.2,24.8 256,252.7 129.8,24.8 97.4,24.8 256,311.4 414.6,24.8 	"/>
	<polygon style="fill:#199583;" points="414.6,24.8 256,311.4 97.4,24.8 64.9,24.8 256,370 447.1,24.8 	"/>
	<polygon style="fill:#50DEDE;" points="447.1,24.8 256,370 64.9,24.8 32.5,24.8 256,428.6 479.5,24.8 	"/>
	<polygon style="fill:#199583;" points="479.6,24.8 256,428.6 32.5,24.8 0,24.8 256,487.2 512,24.8 	"/>
</g>
</svg>
